<?xml version="1.0" standalone="no"?><!DOCTYPE svg PUBLIC "-//W3C//DTD SVG 1.1//EN" "http://www.w3.org/Graphics/SVG/1.1/DTD/svg11.dtd"><svg t="1738671007165" class="icon" viewBox="0 0 1024 1024" version="1.1" xmlns="http://www.w3.org/2000/svg" p-id="4347" xmlns:xlink="http://www.w3.org/1999/xlink" width="1em" height="1em"><path fill="currentcolor" d="M896 928a31.904 31.904 0 0 1-22.624-9.376l-192-192a31.968 31.968 0 1 1 45.248-45.248l192 192A31.968 31.968 0 0 1 896 928zM320 352a31.904 31.904 0 0 1-22.624-9.376l-192-192a31.904 31.904 0 0 1 0-45.248 31.968 31.968 0 0 1 45.248 0l192 192a31.904 31.904 0 0 1 0 45.248A31.904 31.904 0 0 1 320 352zM128 928a31.968 31.968 0 0 1-22.624-54.624l192-192a31.968 31.968 0 1 1 45.248 45.248l-192 192A31.904 31.904 0 0 1 128 928z m576-576a31.904 31.904 0 0 1-32-32c0-8.192 3.136-16.384 9.376-22.624l192-192a31.968 31.968 0 1 1 45.248 45.248l-192 192A31.904 31.904 0 0 1 704 352zM512 650.656A138.816 138.816 0 0 1 373.344 512 138.816 138.816 0 0 1 512 373.344 138.816 138.816 0 0 1 650.656 512 138.784 138.784 0 0 1 512 650.656z m0-213.312A74.72 74.72 0 0 0 437.344 512 74.752 74.752 0 0 0 512 586.656 74.752 74.752 0 0 0 586.656 512 74.752 74.752 0 0 0 512 437.344z" p-id="4348"></path></svg>