<?xml version="1.0" encoding="utf-8"?>
<!-- Generator: Adobe Illustrator 28.2.0, SVG Export Plug-In . SVG Version: 6.00 Build 0)  -->
<svg version="1.1" id="_图层_2" xmlns="http://www.w3.org/2000/svg" xmlns:xlink="http://www.w3.org/1999/xlink" x="0px" y="0px"
	 viewBox="0 0 685 685" style="enable-background:new 0 0 685 685;" xml:space="preserve">
<style type="text/css">
	.st0{fill:#282933;}
	.st1{fill:#F0960E;}
	.st2{fill:#FDB10A;}
	.st3{fill:#F8A500;}
	.st4{fill:#FDB20A;}
</style>
<path class="st0" d="M175.4,0h334.2C606.5,0,685,81.8,685,182.8v319.4c0,101-78.5,182.8-175.4,182.8H175.4C78.5,685,0,603.2,0,502.2
	V182.8C0,81.8,78.5,0,175.4,0z"/>
<path class="st1" d="M342.5,90.5c-1.8,0-3.6,0-5.4,0c-9,0.2-12.3,12.1-4.5,16.6c52,30.3,85.8,88.3,81.2,153.8
	c-5.6,81.1-71.5,146.8-152.6,152.3c-65.8,4.5-123.9-29.8-154-82.2c-4.5-7.8-16.4-4.5-16.6,4.5c-0.1,2.3-0.1,4.7-0.1,7
	c0,143.1,119.3,258.4,263.9,251.8c129.1-5.9,233.9-110.8,239.9-239.9C600.9,209.9,485.6,90.5,342.5,90.5L342.5,90.5L342.5,90.5z"/>
<path class="st2" d="M191.7,306.7c0,14,7.5,27,19.7,34.1c12.2,7,27.2,7,39.3,0c12.2-7,19.7-20,19.7-34.1s-7.5-27-19.7-34.1
	c-12.2-7-27.2-7-39.3,0C199.2,279.6,191.7,292.6,191.7,306.7L191.7,306.7z"/>
<path class="st3" d="M342.5,90.5c-1.8,0-3.6,0-5.4,0c-9,0.2-12.3,12.1-4.5,16.6c52,30.3,85.8,88.3,81.2,153.8
	c-5.6,81.1-71.5,146.8-152.6,152.3c-65.8,4.5-123.9-29.8-154-82.2c-4.5-7.8-16.4-4.5-16.6,4.5c-0.1,2.3-0.1,4.7-0.1,7
	c0,84.1,41.3,158.6,104.6,204.4c27.4,8.5,56,12.7,84.7,12.7c158.9,0,287.8-128.9,287.8-287.8c0-17.6-1.6-34.7-4.7-51.4
	C519.9,143,437.4,90.5,342.5,90.5L342.5,90.5L342.5,90.5z"/>
<path class="st4" d="M337,90.6c-9,0.2-12.3,12.1-4.5,16.6c52,30.3,85.8,88.3,81.2,153.8c-5.6,81.1-71.5,146.8-152.6,152.3
	c-65.8,4.5-123.9-29.8-154-82.2c-4.5-7.8-16.4-4.5-16.6,4.5c-0.1,2.3-0.1,4.6-0.1,7c0,39.3,9.1,76.5,25.1,109.7
	c28.3,9,57.7,13.6,87.4,13.5c158.9,0,287.8-128.9,287.8-287.8c0-14-1-27.8-3-41.3c-41.1-29-91.2-46.1-145.3-46.1
	C340.7,90.5,338.9,90.5,337,90.6L337,90.6L337,90.6L337,90.6z"/>
<path class="st2" d="M107.2,331.1c-4.5-7.8-16.4-4.5-16.6,4.5c-0.1,2.3-0.1,4.6-0.1,7c0,8.3,0.4,16.4,1.2,24.5
	c12.7,1.7,25.7,2.7,38.9,2.7c2.4,0,4.9-0.1,7.3-0.2C125.8,358.4,115.4,345.4,107.2,331.1L107.2,331.1L107.2,331.1L107.2,331.1
	L107.2,331.1z M342.5,90.5c-1.8,0-3.6,0-5.4,0c-9,0.2-12.3,12.1-4.5,16.6c29.9,17.5,53.5,43.9,67.6,75.5
	c9.7-25.9,15.5-53.2,17.4-80.8C393.3,94.3,367.9,90.5,342.5,90.5L342.5,90.5L342.5,90.5z"/>
</svg>
