<?xml version="1.0" encoding="UTF-8"?>
<svg id="_图层_2" data-name="图层 2" xmlns="http://www.w3.org/2000/svg" viewBox="0 0 683.69 683.69">
  <defs>
    <style>
      .cls-1 {
        fill: #e8e7e6;
      }

      .cls-1, .cls-2, .cls-3, .cls-4 {
        stroke-width: 0px;
      }

      .cls-2 {
        fill: #f7a146;
      }

      .cls-3 {
        fill: #353535;
      }

      .cls-4 {
        fill: #838383;
      }
    </style>
  </defs>
  <g id="_图层_1-2" data-name="图层 1">
    <path class="cls-1" d="M170.92,0h341.85c113.95,0,170.92,56.97,170.92,170.92v341.85c0,113.95-56.97,170.92-170.92,170.92H170.92C56.97,683.69,0,626.72,0,512.78V170.92C0,56.97,56.97,0,170.92,0h0Z"/>
    <g>
      <path class="cls-3" d="M156.1,527.59c66.36,66.36,163.08,92.28,253.73,67.99,90.65-24.29,161.46-95.1,185.75-185.75,24.29-90.65-1.63-187.37-67.99-253.74-66.36-66.36-163.08-92.28-253.73-67.99-90.65,24.29-161.46,95.1-185.75,185.75-24.29,90.65,1.63,187.38,68,253.74h0Z"/>
      <path class="cls-4" d="M344.06,114.12c-10.86,0-19.67,8.81-19.67,19.67v35.13c0,10.87,8.81,19.67,19.67,19.67s19.67-8.8,19.67-19.67v-35.12c0-5.22-2.07-10.23-5.76-13.92-3.69-3.69-8.69-5.76-13.91-5.76h0ZM344.06,495.07c-10.86,0-19.67,8.81-19.67,19.67v35.15c0,10.86,8.81,19.67,19.67,19.67s19.67-8.81,19.67-19.67v-35.14c0-5.22-2.07-10.22-5.76-13.91-3.69-3.69-8.69-5.77-13.91-5.77h0ZM483.73,233.29l24.77-24.77c7.7-7.69,7.7-20.17,0-27.86-7.69-7.69-20.17-7.7-27.86,0l-24.8,24.79c-7.7,7.69-7.7,20.17,0,27.86,7.69,7.69,20.17,7.69,27.86,0v-.02ZM553.33,321.26h-34.99c-10.88,0-19.7,8.82-19.7,19.7s8.82,19.7,19.7,19.7h35.03c10.88,0,19.71-8.82,19.71-19.7s-8.82-19.7-19.71-19.7h-.04ZM481.72,453.06c-4.98-4.98-12.23-6.92-19.03-5.1-6.8,1.83-12.11,7.14-13.93,13.93-1.82,6.8.13,14.05,5.11,19.03l24.77,24.77c4.98,4.98,12.23,6.92,19.03,5.1,6.8-1.83,12.11-7.14,13.93-13.93,1.82-6.8-.13-14.05-5.1-19.03l-24.77-24.77ZM193.87,340.93c0-10.86-8.81-19.67-19.67-19.67h-35.06c-10.88,0-19.7,8.82-19.7,19.7s8.82,19.7,19.7,19.7h35.03c5.23,0,10.24-2.06,13.94-5.76,3.7-3.69,5.77-8.71,5.76-13.94v-.03ZM210.76,453.06l-24.76,24.77c-7.7,7.69-7.7,20.17,0,27.86,7.69,7.69,20.17,7.69,27.86,0l24.76-24.77c7.7-7.69,7.7-20.17,0-27.86-7.69-7.69-20.17-7.69-27.86,0h0Z"/>
      <path class="cls-2" d="M435.5,252.24c-43.69-43.52-112.34-49.36-162.76-13.84l-58.72-58.54c-4.99-4.97-12.24-6.9-19.04-5.06-6.8,1.83-12.09,7.16-13.9,13.96-1.81,6.8.15,14.05,5.14,19.02l58.23,58.03c-40.8,54.21-31.77,130.92,20.5,174.17,52.28,43.26,129.31,37.77,174.93-12.45,45.61-50.22,43.69-127.44-4.38-175.32v.03Z"/>
    </g>
  </g>
</svg>