<?xml version="1.0" encoding="UTF-8"?>
<svg id="_图层_2" data-name="图层 2" xmlns="http://www.w3.org/2000/svg" viewBox="0 0 685 685">
  <defs>
    <style>
      .cls-1 {
        fill: #262a54;
      }

      .cls-1, .cls-2, .cls-3, .cls-4, .cls-5 {
        stroke-width: 0px;
      }

      .cls-2 {
        fill: #fdb10a;
      }

      .cls-3 {
        fill: #f8a500;
      }

      .cls-4 {
        fill: #f0960e;
      }

      .cls-5 {
        fill: #fdb20a;
      }
    </style>
  </defs>
  <g id="_图层_2-2" data-name=" 图层 2">
    <g>
      <path class="cls-1" d="M175.38,0h334.23c96.86,0,175.38,81.85,175.38,182.81v319.38c0,100.96-78.52,182.81-175.38,182.81H175.38C78.52,685,0,603.15,0,502.19V182.81C0,81.85,78.52,0,175.38,0Z"/>
      <g>
        <path class="cls-4" d="M342.47,90.47c-1.81,0-3.61,0-5.41.04-8.97.2-12.27,12.12-4.49,16.64,51.97,30.31,85.81,88.34,81.24,153.82-5.65,81.15-71.45,146.84-152.61,152.29-65.76,4.46-123.9-29.79-154.01-82.2-4.49-7.82-16.4-4.53-16.64,4.46-.08,2.33-.08,4.66-.08,6.98,0,143.15,119.33,258.44,263.92,251.77,129.11-5.93,233.93-110.75,239.87-239.87,6.62-144.55-108.63-263.92-251.77-263.92h-.02Z"/>
        <path class="cls-2" d="M191.66,306.68c0,14.05,7.5,27.04,19.67,34.06,12.17,7.03,27.17,7.03,39.34,0,12.17-7.02,19.67-20.01,19.67-34.06s-7.5-27.04-19.67-34.06c-12.17-7.03-27.17-7.03-39.34,0-12.17,7.02-19.67,20.01-19.67,34.06h0Z"/>
        <path class="cls-3" d="M342.47,90.47c-1.81,0-3.61,0-5.41.04-8.97.2-12.27,12.12-4.49,16.64,51.97,30.31,85.81,88.29,81.24,153.82-5.65,81.15-71.45,146.84-152.61,152.29-65.76,4.46-123.9-29.79-154.01-82.2-4.49-7.82-16.4-4.53-16.64,4.46-.08,2.33-.08,4.66-.08,6.98,0,84.12,41.26,158.63,104.62,204.38,27.45,8.45,56.01,12.74,84.73,12.71,158.95,0,287.82-128.88,287.82-287.82,0-17.57-1.64-34.73-4.66-51.41-43.06-77.38-125.63-129.88-220.5-129.88h-.01Z"/>
        <path class="cls-5" d="M337.05,90.55c-8.97.2-12.27,12.12-4.49,16.64,51.97,30.32,85.81,88.29,81.24,153.82-5.65,81.15-71.45,146.84-152.61,152.29-65.76,4.46-123.9-29.79-154.01-82.2-4.49-7.82-16.4-4.53-16.64,4.46-.08,2.33-.08,4.65-.08,6.98,0,39.29,9.07,76.51,25.1,109.67,28.27,9,57.75,13.58,87.42,13.55,158.95,0,287.82-128.88,287.82-287.82,0-14.03-1.04-27.83-3.01-41.34-41.06-29.02-91.18-46.07-145.27-46.07-1.84-.04-3.65,0-5.46.05h0v-.03Z"/>
        <path class="cls-2" d="M107.18,331.11c-4.49-7.82-16.4-4.53-16.64,4.46-.08,2.33-.08,4.65-.08,6.98,0,8.26.44,16.44,1.21,24.5,12.71,1.73,25.7,2.69,38.89,2.69,2.45,0,4.86-.12,7.26-.2-12.03-11.18-22.41-24.1-30.63-38.41h0v-.02h0ZM342.47,90.47c-1.81,0-3.61,0-5.41.04-8.97.2-12.27,12.12-4.49,16.64,29.9,17.46,53.54,43.9,67.57,75.54,9.68-25.95,15.55-53.16,17.44-80.8-24.32-7.57-49.64-11.42-75.1-11.43h-.01Z"/>
      </g>
    </g>
  </g>
</svg>